<svg width="342" height="73" viewBox="0 0 342 73" fill="none" xmlns="http://www.w3.org/2000/svg">
<path d="M32.0289 72.0418C31.2824 72.1512 30.521 72.0981 29.7969 71.8862C29.0728 71.6742 28.403 71.3084 27.8333 70.8137C27.2636 70.319 26.8074 69.7071 26.496 69.0199C26.1846 68.3326 26.0253 67.5862 26.0289 66.8318C26.0254 65.2287 26.1055 63.6265 26.2689 62.0317C27.1089 53.7017 30.1889 47.5318 35.1889 44.1918C38.8489 41.7518 43.3289 40.8818 48.5189 41.6018C53.0567 42.3374 57.4463 43.7995 61.5189 45.9318C62.1613 46.2523 62.731 46.7015 63.1926 47.2514C63.6542 47.8013 63.9979 48.4402 64.2023 49.1285C64.4067 49.8168 64.4675 50.5397 64.3809 51.2524C64.2943 51.9652 64.0622 52.6525 63.6989 53.2718V53.2718C63.0287 54.4198 61.9486 55.2715 60.6759 55.6555C59.4032 56.0396 58.0323 55.9275 56.8389 55.3418C49.6189 51.7718 44.1089 50.9017 41.0789 52.9217C37.4389 55.3417 36.5789 61.9817 36.5689 66.9217C36.5652 68.1857 36.1029 69.4054 35.268 70.3544C34.433 71.3033 33.2821 71.9171 32.0289 72.0818V72.0418Z" fill="#0D47A1"/>
<path d="M31.8389 42.2218C35.2521 42.2218 38.0189 39.4549 38.0189 36.0418C38.0189 32.6286 35.2521 29.8618 31.8389 29.8618C28.4258 29.8618 25.6589 32.6286 25.6589 36.0418C25.6589 39.4549 28.4258 42.2218 31.8389 42.2218Z" fill="#0D47A1"/>
<path d="M34.0688 0.0917658C33.3329 -0.0478098 32.5756 -0.0279687 31.8479 0.149948C31.1203 0.327864 30.4392 0.659721 29.8507 1.12315C29.2622 1.58657 28.7799 2.17079 28.4363 2.83642C28.0927 3.50204 27.8958 4.2336 27.8588 4.98177C27.7782 6.58408 27.7782 8.18945 27.8588 9.79177C28.2688 18.1618 31.0189 24.4818 35.8589 28.0818C39.3789 30.7018 43.8588 31.8118 49.0388 31.3618C53.5739 30.8616 57.9997 29.6395 62.1488 27.7418C62.8086 27.4564 63.4024 27.038 63.8933 26.5128C64.3841 25.9877 64.7614 25.367 65.0017 24.6894C65.2419 24.0119 65.3399 23.2922 65.2895 22.5751C65.2391 21.858 65.0414 21.159 64.7088 20.5218C64.1005 19.3426 63.0682 18.4375 61.8196 17.9886C60.5711 17.5396 59.1988 17.58 57.9788 18.1018C50.5788 21.2918 44.9789 21.8618 42.1089 19.6918C38.5989 17.0918 38.1088 10.4018 38.3388 5.51176C38.3987 4.249 37.9992 3.00728 37.2142 2.01636C36.4292 1.02544 35.3118 0.352395 34.0688 0.121765V0.0917658Z" fill="#0D47A1"/>
<path d="M0.399 18.4918C0.677065 17.7964 1.10068 17.1686 1.6414 16.6505C2.18212 16.1323 2.82745 15.7359 3.53403 15.4877C4.24062 15.2396 4.99212 15.1454 5.73808 15.2117C6.48404 15.2779 7.2072 15.503 7.859 15.8718C9.129 16.5918 10.519 17.4518 11.919 18.4418C18.769 23.2718 22.629 28.9918 23.069 34.9918C23.399 39.3718 21.949 43.7018 18.769 47.8718C15.8994 51.4447 12.472 54.531 8.619 57.0118C8.0238 57.4147 7.35207 57.6909 6.64558 57.8231C5.9391 57.9553 5.21296 57.9408 4.51233 57.7804C3.8117 57.62 3.15156 57.3172 2.57296 56.8908C1.99435 56.4644 1.50965 55.9235 1.149 55.3018V55.3018C0.477201 54.1518 0.266681 52.7897 0.559927 51.4905C0.853172 50.1913 1.62835 49.0517 2.729 48.3018C9.379 43.7718 12.849 39.4018 12.579 35.7718C12.269 31.4118 6.899 27.3918 2.639 24.9718C1.54047 24.3469 0.705962 23.3447 0.290342 22.1512C-0.125278 20.9576 -0.0937745 19.6539 0.379003 18.4818L0.399 18.4918Z" fill="#0D47A1"/>
<path d="M93.359 32.4918V55.2018H82.469V15.9318H92.849V22.8518H93.309C94.143 20.6184 95.6756 18.714 97.679 17.4218C99.9074 16.0357 102.496 15.3398 105.119 15.4218C107.614 15.3628 110.078 15.9814 112.249 17.2118C114.287 18.4202 115.933 20.1911 116.989 22.3118C118.164 24.7722 118.74 27.476 118.669 30.2018V55.2018H107.779V32.1418C107.918 30.0945 107.259 28.0729 105.939 26.5018C105.277 25.818 104.475 25.2852 103.588 24.9401C102.7 24.5949 101.749 24.4454 100.799 24.5018C99.4489 24.4703 98.1142 24.7945 96.929 25.4418C95.8047 26.0782 94.8959 27.0358 94.319 28.1918C93.6703 29.5314 93.3417 31.0034 93.359 32.4918Z" fill="black"/>
<path d="M152.419 38.4818V15.9318H163.309V55.2018H152.859V48.0618H152.449C151.595 50.3269 150.053 52.2677 148.039 53.6118C145.81 55.0638 143.188 55.7968 140.529 55.7118C138.099 55.7595 135.702 55.1405 133.599 53.9218C131.587 52.7103 129.969 50.9425 128.939 48.8318C127.758 46.3689 127.176 43.6622 127.239 40.9318V15.9318H138.129V38.9918C138.041 40.9946 138.709 42.9575 139.999 44.4918C140.628 45.1613 141.394 45.6868 142.245 46.032C143.096 46.3773 144.012 46.5341 144.929 46.4918C146.212 46.4957 147.476 46.1831 148.609 45.5818C149.767 44.9557 150.729 44.0212 151.389 42.8818C152.127 41.5365 152.484 40.0149 152.419 38.4818V38.4818Z" fill="black"/>
<path d="M192.899 15.9318V24.1118H169.249V15.9318H192.899ZM174.619 6.52179H185.519V43.1318C185.474 43.938 185.632 44.7425 185.979 45.4718C186.254 46.0017 186.713 46.4138 187.269 46.6318C187.885 46.8664 188.54 46.9818 189.199 46.9718C189.712 46.9715 190.225 46.9212 190.729 46.8218L191.909 46.6118L193.619 54.7418C193.079 54.9118 192.309 55.1118 191.319 55.3418C190.134 55.5938 188.929 55.7377 187.719 55.7718C185.372 55.9248 183.019 55.5736 180.819 54.7418C178.933 54.0093 177.327 52.7005 176.229 51.0018C175.069 49.0787 174.505 46.8551 174.609 44.6118L174.619 6.52179Z" fill="black"/>
<path d="M217.469 55.9718C213.84 56.0678 210.249 55.2165 207.049 53.5018C204.169 51.8839 201.834 49.4477 200.339 46.5018C198.791 43.1489 197.989 39.4999 197.989 35.8068C197.989 32.1137 198.791 28.4646 200.339 25.1118C201.827 22.1536 204.127 19.6804 206.969 17.9818C210.026 16.2267 213.505 15.3414 217.029 15.4218C219.5 15.4054 221.954 15.8251 224.279 16.6618C226.482 17.4683 228.487 18.7367 230.159 20.3818C231.909 22.1463 233.25 24.2728 234.089 26.6118C235.072 29.4254 235.547 32.3918 235.489 35.3718V38.3718H202.329V31.6218H225.239C225.273 30.1685 224.929 28.7314 224.239 27.4518C223.574 26.2606 222.595 25.2748 221.409 24.6018C220.129 23.9041 218.686 23.559 217.229 23.6018C215.693 23.5734 214.179 23.9641 212.849 24.7318C211.595 25.4632 210.56 26.5161 209.849 27.7818C209.126 29.0744 208.747 30.5309 208.749 32.0118V38.4218C208.708 40.1516 209.081 41.8661 209.839 43.4218C210.516 44.7947 211.589 45.9336 212.919 46.6918C214.356 47.4849 215.978 47.8818 217.619 47.8418C218.747 47.851 219.868 47.6753 220.939 47.3218C221.902 47.0099 222.783 46.4872 223.519 45.7918C224.249 45.0902 224.81 44.2319 225.159 43.2818L235.229 43.9518C234.757 46.299 233.678 48.4815 232.099 50.2818C230.433 52.1405 228.349 53.5766 226.019 54.4718C223.291 55.5142 220.389 56.0234 217.469 55.9718V55.9718Z" fill="black"/>
<path d="M253.799 55.9418C251.497 55.9831 249.213 55.5331 247.099 54.6218C245.202 53.803 243.588 52.4429 242.459 50.7118C241.433 48.8936 240.852 46.858 240.765 44.7719C240.678 42.6859 241.087 40.609 241.959 38.7118C242.733 37.2607 243.861 36.0291 245.239 35.1318C246.691 34.2155 248.281 33.5401 249.949 33.1318C251.772 32.6486 253.632 32.3141 255.509 32.1318C257.802 31.8918 259.646 31.6651 261.039 31.4518C262.098 31.3319 263.12 30.9912 264.039 30.4518C264.346 30.2449 264.593 29.962 264.758 29.6307C264.923 29.2995 264.999 28.9312 264.979 28.5618V28.4018C265.022 27.7029 264.907 27.0033 264.644 26.3544C264.381 25.7055 263.976 25.1237 263.459 24.6518C262.238 23.6949 260.707 23.2214 259.159 23.3218C257.5 23.2337 255.858 23.6864 254.479 24.6118C253.371 25.4012 252.558 26.5379 252.169 27.8418L242.099 27.0218C242.559 24.7349 243.591 22.6019 245.099 20.8218C246.684 19.0391 248.678 17.6666 250.909 16.8218C253.555 15.8314 256.364 15.3496 259.189 15.4018C261.303 15.3953 263.409 15.6539 265.459 16.1718C267.369 16.6414 269.181 17.4473 270.809 18.5518C272.356 19.6088 273.622 21.0262 274.499 22.6818C275.443 24.5381 275.91 26.5999 275.859 28.6818V55.1718H265.619V49.7418H265.309C264.68 50.973 263.821 52.0727 262.779 52.9818C261.66 53.9436 260.367 54.6804 258.969 55.1518C257.303 55.7059 255.555 55.973 253.799 55.9418V55.9418ZM256.919 48.4218C258.393 48.4407 259.849 48.0973 261.159 47.4218C262.335 46.8305 263.333 45.9365 264.049 44.8318C264.754 43.7242 265.119 42.4345 265.099 41.1218V36.9518C264.669 37.2221 264.2 37.4245 263.709 37.5518C263.052 37.7509 262.384 37.9145 261.709 38.0418C260.969 38.1918 260.239 38.3118 259.509 38.4218L257.509 38.7218C256.359 38.8743 255.233 39.1734 254.159 39.6118C253.289 39.9613 252.524 40.5297 251.939 41.2618C251.394 42.0053 251.116 42.9107 251.149 43.8318C251.114 44.4873 251.243 45.1412 251.526 45.7335C251.809 46.3258 252.237 46.8375 252.769 47.2218C253.988 48.057 255.443 48.4777 256.919 48.4218V48.4218Z" fill="black"/>
<path d="M284.379 55.2018V15.9318H294.759V22.8518H295.219C295.966 20.648 297.399 18.7416 299.309 17.4118C301.359 16.103 303.741 15.4077 306.174 15.4077C308.606 15.4077 310.988 16.103 313.039 17.4118C314.904 18.7175 316.246 20.641 316.829 22.8418H317.229C318.03 20.6008 319.567 18.6973 321.589 17.4418C323.833 16.059 326.434 15.3638 329.069 15.4418C330.719 15.377 332.365 15.6536 333.903 16.2541C335.441 16.8547 336.839 17.7662 338.009 18.9318C340.302 21.2651 341.449 24.5618 341.449 28.8218V55.2318H330.619V30.9318C330.687 30.0388 330.568 29.1414 330.268 28.2974C329.968 27.4534 329.495 26.6816 328.879 26.0318C328.299 25.4867 327.617 25.0614 326.872 24.78C326.127 24.4986 325.335 24.3667 324.539 24.3918C323.676 24.3431 322.813 24.4864 322.013 24.8115C321.212 25.1366 320.493 25.6354 319.909 26.2718C318.754 27.655 318.161 29.4219 318.249 31.2218V55.2218H307.619V30.7418C307.661 29.9041 307.537 29.0664 307.253 28.277C306.97 27.4875 306.534 26.7618 305.969 26.1418C305.405 25.5698 304.727 25.1223 303.98 24.8278C303.232 24.5333 302.432 24.3984 301.629 24.4318C300.477 24.416 299.346 24.7319 298.369 25.3418C297.393 25.9646 296.602 26.8384 296.079 27.8718C295.497 29.0489 295.209 30.3492 295.239 31.6618V55.2418L284.379 55.2018Z" fill="black"/>
</svg>
